<svg width="245" height="27" viewBox="0 0 245 27" fill="none" xmlns="http://www.w3.org/2000/svg">
<path d="M13.58 26.36C11.684 26.36 9.932 26.048 8.324 25.424C6.74 24.776 5.36 23.876 4.184 22.724C3.032 21.548 2.132 20.168 1.484 18.584C0.86 16.976 0.548 15.224 0.548 13.328C0.548 11.456 0.872 9.728 1.52 8.144C2.192 6.56 3.128 5.18 4.328 4.004C5.528 2.828 6.932 1.916 8.54 1.268C10.172 0.619998 11.936 0.295998 13.832 0.295998C15.032 0.295998 16.208 0.451998 17.36 0.763999C18.512 1.076 19.58 1.544 20.564 2.168C21.572 2.768 22.436 3.5 23.156 4.364L19.376 8.648C18.632 7.832 17.792 7.196 16.856 6.74C15.944 6.284 14.924 6.056 13.796 6.056C12.836 6.056 11.924 6.224 11.06 6.56C10.22 6.896 9.488 7.388 8.864 8.036C8.24 8.684 7.748 9.452 7.388 10.34C7.028 11.228 6.848 12.236 6.848 13.364C6.848 14.468 7.016 15.476 7.352 16.388C7.712 17.276 8.216 18.044 8.864 18.692C9.536 19.316 10.328 19.796 11.24 20.132C12.176 20.468 13.208 20.636 14.336 20.636C15.08 20.636 15.788 20.54 16.46 20.348C17.156 20.132 17.804 19.832 18.404 19.448C19.004 19.064 19.52 18.632 19.952 18.152L22.94 22.904C22.364 23.552 21.572 24.14 20.564 24.668C19.58 25.196 18.476 25.616 17.252 25.928C16.052 26.216 14.828 26.36 13.58 26.36ZM26.6249 26V20.816H30.8729V5.984H26.6249V0.799998H41.2769V5.984H37.0289V20.816H41.2769V26H26.6249ZM54.1897 26L44.1097 0.799998H50.5177L55.3417 13.508C55.6297 14.252 55.8697 14.912 56.0617 15.488C56.2777 16.064 56.4577 16.604 56.6017 17.108C56.7697 17.588 56.9257 18.08 57.0697 18.584C57.2137 19.064 57.3697 19.616 57.5377 20.24H56.4217C56.6377 19.4 56.8417 18.656 57.0337 18.008C57.2257 17.36 57.4417 16.688 57.6817 15.992C57.9217 15.296 58.2217 14.468 58.5817 13.508L63.2257 0.799998H69.4897L59.3737 26H54.1897ZM72.3632 26V20.816H76.6112V5.984H72.3632V0.799998H87.0152V5.984H82.7672V20.816H87.0152V26H72.3632ZM92.8 26V0.799998H98.956V20.564H110.188V26H92.8ZM134.657 26.36C132.161 26.36 130.049 25.928 128.321 25.064C126.617 24.176 125.153 22.928 123.929 21.32L127.673 17.108C128.849 18.716 130.037 19.796 131.237 20.348C132.437 20.9 133.673 21.176 134.945 21.176C135.593 21.176 136.169 21.092 136.673 20.924C137.201 20.756 137.609 20.516 137.897 20.204C138.209 19.868 138.365 19.472 138.365 19.016C138.365 18.656 138.269 18.332 138.077 18.044C137.909 17.756 137.669 17.504 137.357 17.288C137.045 17.072 136.685 16.88 136.277 16.712C135.869 16.52 135.413 16.364 134.909 16.244C134.429 16.124 133.937 16.016 133.433 15.92C132.041 15.632 130.829 15.26 129.797 14.804C128.789 14.324 127.937 13.76 127.241 13.112C126.569 12.44 126.065 11.684 125.729 10.844C125.393 9.98 125.225 9.008 125.225 7.928C125.225 6.392 125.657 5.048 126.521 3.896C127.409 2.744 128.573 1.844 130.013 1.196C131.453 0.547999 133.013 0.223999 134.693 0.223999C137.141 0.223999 139.109 0.619999 140.597 1.412C142.109 2.18 143.309 3.248 144.197 4.616L140.381 8.324C139.637 7.364 138.785 6.644 137.825 6.164C136.889 5.684 135.905 5.444 134.873 5.444C134.177 5.444 133.565 5.528 133.037 5.696C132.509 5.864 132.101 6.116 131.813 6.452C131.549 6.764 131.417 7.148 131.417 7.604C131.417 7.988 131.525 8.336 131.741 8.648C131.981 8.936 132.305 9.188 132.713 9.404C133.121 9.62 133.589 9.812 134.117 9.98C134.645 10.124 135.197 10.244 135.773 10.34C137.093 10.604 138.281 10.952 139.337 11.384C140.417 11.816 141.341 12.356 142.109 13.004C142.877 13.628 143.465 14.372 143.873 15.236C144.305 16.076 144.521 17.048 144.521 18.152C144.521 19.88 144.101 21.356 143.261 22.58C142.421 23.804 141.257 24.74 139.769 25.388C138.281 26.036 136.577 26.36 134.657 26.36ZM154.592 26V6.236H147.176V0.799998H168.416V6.236H160.748V26H154.592ZM183.104 26.36C181.208 26.36 179.456 26.036 177.848 25.388C176.264 24.74 174.884 23.84 173.708 22.688C172.556 21.512 171.656 20.132 171.008 18.548C170.36 16.94 170.036 15.188 170.036 13.292C170.036 11.42 170.36 9.692 171.008 8.108C171.656 6.5 172.556 5.108 173.708 3.932C174.884 2.756 176.264 1.844 177.848 1.196C179.456 0.547999 181.208 0.223999 183.104 0.223999C184.976 0.223999 186.704 0.547999 188.288 1.196C189.872 1.844 191.24 2.756 192.392 3.932C193.568 5.108 194.48 6.5 195.128 8.108C195.776 9.692 196.1 11.432 196.1 13.328C196.1 15.2 195.776 16.928 195.128 18.512C194.48 20.096 193.568 21.476 192.392 22.652C191.24 23.828 189.872 24.74 188.288 25.388C186.704 26.036 184.976 26.36 183.104 26.36ZM183.104 20.564C184.088 20.564 184.988 20.384 185.804 20.024C186.62 19.664 187.328 19.16 187.928 18.512C188.552 17.864 189.032 17.096 189.368 16.208C189.704 15.32 189.872 14.36 189.872 13.328C189.872 12.272 189.704 11.3 189.368 10.412C189.032 9.524 188.552 8.756 187.928 8.108C187.328 7.436 186.62 6.92 185.804 6.56C184.988 6.2 184.088 6.02 183.104 6.02C182.12 6.02 181.208 6.2 180.368 6.56C179.552 6.92 178.832 7.436 178.208 8.108C177.608 8.756 177.14 9.524 176.804 10.412C176.468 11.3 176.3 12.272 176.3 13.328C176.3 14.72 176.588 15.968 177.164 17.072C177.764 18.152 178.568 19.004 179.576 19.628C180.608 20.252 181.784 20.564 183.104 20.564ZM200.765 26V0.799998H212.177C213.809 0.799998 215.273 1.148 216.569 1.844C217.865 2.54 218.885 3.5 219.629 4.724C220.397 5.924 220.781 7.304 220.781 8.864C220.781 10.448 220.397 11.864 219.629 13.112C218.885 14.36 217.865 15.356 216.569 16.1C215.273 16.82 213.809 17.18 212.177 17.18H206.633V26H200.765ZM214.769 26L208.361 14.588L214.661 13.688L221.789 26.036L214.769 26ZM206.633 12.392H211.637C212.261 12.392 212.801 12.26 213.257 11.996C213.737 11.708 214.097 11.324 214.337 10.844C214.601 10.364 214.733 9.812 214.733 9.188C214.733 8.54 214.577 7.976 214.265 7.496C213.977 7.016 213.557 6.644 213.005 6.38C212.477 6.092 211.841 5.948 211.097 5.948H206.633V12.392ZM226.112 26V0.799998H243.68V6.056H232.124V20.744H244.076V26H226.112ZM229.028 15.704V10.664H242.096V15.704H229.028Z" fill="#BA480A"/>
</svg>
